<?xml version="1.0" encoding="utf-8"?>
<!-- Generator: Adobe Illustrator 19.0.0, SVG Export Plug-In . SVG Version: 6.00 Build 0)  -->
<svg version="1.1" id="Layer_1" xmlns="http://www.w3.org/2000/svg" xmlns:xlink="http://www.w3.org/1999/xlink" x="0px" y="0px"
	 viewBox="0 0 200 200" enable-background="new 0 0 200 200" xml:space="preserve">
<path id="XMLID_47_" fill="#010101" d="M197.2,23.4c-2.6-6.5-9.3-10.8-16.8-10.8c-4.7,0-4.7,0-4.8-4.6c0-0.1,0-0.3,0-0.4
	c-0.1-3.4-1.6-5.2-4.8-6c-1,0-2,0-3.1,0c-3.2,0.8-4.6,2.6-4.8,5.9c0,0.9,0,1.8,0,2.7c0,2.1-0.2,2.3-2.3,2.3c-5.2,0-10.3,0-15.5,0
	c-4.9,0-4.3,0.5-4.4-4.4c0-0.2,0-0.4,0-0.6c-0.2-3.4-1.6-5.1-4.8-5.9c-1,0-2,0-3.1,0c-3.2,0.8-4.6,2.6-4.8,5.9c0,0.9,0,1.8,0,2.7
	c0,2.1-0.2,2.3-2.3,2.3c-5,0-10,0-15.1,0c-4.9,0-4.3,0.5-4.4-4.4c0-0.2,0-0.4,0-0.6c-0.2-3.4-1.6-5.1-4.8-5.9c-1,0-2,0-3.1,0
	c-3.2,0.8-4.6,2.6-4.8,5.9c0,0.9,0,1.8,0,2.7c0,2.1-0.2,2.3-2.3,2.3c-5.2,0-10.3,0-15.5,0c-4.9,0-4.3,0.5-4.4-4.4c0-0.2,0-0.4,0-0.6
	c-0.2-3.4-1.6-5.1-4.8-5.9c-1,0-2,0-3.1,0c-3.2,0.8-4.6,2.6-4.8,5.9c0,0.9,0,1.8,0,2.7c0,2.1-0.2,2.3-2.3,2.3c-5,0-10,0-15.1,0
	c-4.9,0-4.3,0.5-4.4-4.4c0-0.2,0-0.4,0-0.6c-0.2-3.4-1.6-5.1-4.8-5.9c-1,0-2,0-3.1,0c-3.4,0.9-4.7,2.7-4.8,6.5
	c-0.1,4.9,0.7,4.6-4.4,4.3C12.4,12.1,2.6,18.1,2,27.7c0,51.8,0,103.6,0,155.5c0.2,7.1,7.4,14.4,14.6,14.6c55.5,0,111,0,166.6,0
	c8.9-1.5,13.5-6,14.9-14.6c0-51.7,0-103.4,0-155.1C197.7,26.5,197.8,24.9,197.2,23.4z M13.5,30.8c0-3.8,2.4-6.3,6.1-6.2
	c1.8,0,4.2-0.8,5.1,0.4c0.9,1.1,0.2,3.4,0.3,5.2c0.1,3.4,2.5,5.9,5.7,5.9c3.2,0,5.7-2.5,5.8-5.8c0-1.5,0.1-2.9,0-4.4
	c-0.1-1,0.3-1.3,1.3-1.3c6.8,0,13.7,0,20.5,0c1,0,1.3,0.3,1.3,1.3c-0.1,1.5,0,2.9,0,4.4c0.1,3.3,2.6,5.8,5.8,5.8
	c3.2,0,5.6-2.5,5.7-5.7c0-1.5,0.1-3.1,0-4.6c0-0.9,0.3-1.2,1.2-1.2c7,0,14,0,21.1,0c0.9,0,1.2,0.3,1.2,1.2c-0.1,1.4,0,2.8,0,4.2
	c0,3.6,2.4,6.1,5.7,6.1c3.3,0,5.8-2.5,5.8-6c0-1.5,0-2.9,0-4.4c0-0.8,0.2-1.1,1.1-1.1c7,0,13.9,0,20.9,0c0.8,0,1.1,0.2,1.1,1.1
	c-0.1,1.5,0,3.1,0,4.6c0.1,3.4,2.5,5.9,5.8,5.8c3.2,0,5.6-2.5,5.7-5.9c0-0.1,0-0.1,0-0.2c0.1-1.8-0.8-4.1,0.4-5.1
	c1-0.9,3.3-0.3,5-0.3c5.5,0,11,0,16.5,0c1.2,0,1.7,0.3,1.6,1.6c-0.1,1.5-0.1,2.9,0,4.4c0.1,3.1,2.6,5.5,5.7,5.6
	c3.2,0,5.7-2.4,5.8-5.6c0-1.6,0-3.2,0-4.8c0-0.8,0.2-1.1,1.1-1.1c1.6,0.1,3.2,0,4.8,0c3.2,0.1,5.6,2.5,5.6,5.8
	c0,5.2-0.1,10.3,0.1,15.5c0,1.5-0.5,1.7-1.8,1.7c-28.3,0-56.5,0-84.8,0c-28.1,0-56.3,0-84.4,0c-1.6,0-2.2-0.2-2.1-2
	C13.6,40.7,13.5,35.8,13.5,30.8z M186.6,161.3c0,1.6-0.4,2-2,2c-28.2-0.1-56.4,0-84.6,0c-28.2,0-56.4,0-84.6,0c-1.6,0-2-0.4-2-2
	c0.1-33.4,0.1-66.9,0-100.3c0-1.6,0.4-2,2-2c56.4,0,112.8,0,169.2,0c1.6,0,2,0.4,2,2C186.6,94.4,186.6,127.8,186.6,161.3z
	 M186.6,176.7c-0.2,1.3,0,2.5,0,3.8c-0.1,3.2-2.5,5.6-5.7,5.7c-0.4,0-0.9,0-1.3,0c-53,0-105.9,0-158.9,0.1c-4.4,0-7.4-2.5-7.2-7.3
	c0.2-4.3,0-4.3,4.4-4.3c27.4,0,54.9,0,82.3,0c28.1,0,56.3,0,84.4,0C186.1,174.7,186.9,174.9,186.6,176.7z"/>
<path id="XMLID_45_" fill="#010101" d="M139.1,107.7c1.3-1.3,2.3-2.7,2.3-4.9c0-2.7-1.9-5-4.9-5.5c-6.9-1-13.7-2.1-20.6-3
	c-1.1-0.2-1.7-0.6-2.1-1.5c-2.9-6.1-5.9-12.2-8.8-18.3c-1.1-2.4-2.8-3.9-5.6-3.9c-2.7,0-4.4,1.6-5.5,4C91,80.6,88,86.6,85.1,92.7
	c-0.3,0.7-0.5,1.5-1.6,1.6c-3.8,0.5-7.6,1-11.3,1.5c-3.3,0.5-6.5,1-9.8,1.5c-2.5,0.3-4.3,1.7-5,4.1c-0.7,2.3,0,4.4,1.8,6.1
	c4.9,4.7,9.9,9.4,14.8,14.1c0.8,0.8,1.1,1.4,0.9,2.6c-1.3,6.6-2.4,13.3-3.7,19.9c-0.5,2.6-0.1,4.8,2,6.5c2.2,1.7,4.4,1.5,6.8,0.2
	c5.9-3.1,11.9-6.2,17.9-9.3c1.1-0.6,2-0.6,3.1,0c6,3.2,12,6.3,18,9.5c2.2,1.1,4.3,1.1,6.3-0.4c1.9-1.4,2.6-3.3,2.3-5.5
	c-1.1-7-2.3-13.9-3.6-20.9c-0.2-1.1,0-1.7,0.8-2.5C129.6,117,134.3,112.3,139.1,107.7z M115.6,114.4c-3.5,2.9-4.2,6.3-3.2,10.5
	c0.8,3.4,1.2,6.8,1.9,10.5c-3.9-2.1-7.6-3.9-11.2-5.9c-2.4-1.4-4.7-1.4-7.2,0c-3.6,2-7.4,3.9-11.4,5.9c0.8-4.5,1.5-8.7,2.4-12.8
	c0.5-2.7,0-4.8-2.1-6.7c-3.1-2.8-6.1-5.8-9.3-8.9c4.6-0.7,9-1.4,13.3-2c2.3-0.3,3.8-1.5,4.8-3.5c1.9-3.9,3.8-7.9,5.9-12.1
	c1.8,3.8,3.7,7.3,5.2,10.9c1.4,3.3,3.7,4.7,7.2,5c3.7,0.4,7.4,1,10.8,1.5C120.3,109.4,118.2,112.2,115.6,114.4z"/>
</svg>
