<?xml version="1.0" encoding="utf-8"?>
<!-- Generator: Adobe Illustrator 19.0.0, SVG Export Plug-In . SVG Version: 6.00 Build 0)  -->
<svg version="1.1" id="Layer_1" xmlns="http://www.w3.org/2000/svg" xmlns:xlink="http://www.w3.org/1999/xlink" x="0px" y="0px"
	 viewBox="0 0 200 200" enable-background="new 0 0 200 200" xml:space="preserve">
<path id="XMLID_47_" fill="#010101" d="M196.9,23.8c-2.6-6.5-9.3-10.8-16.8-10.8c-4.7,0-4.7,0-4.8-4.6c0-0.1,0-0.3,0-0.4
	c-0.1-3.4-1.6-5.2-4.8-6c-1,0-2,0-3.1,0c-3.2,0.8-4.6,2.6-4.8,5.9c0,0.9,0,1.8,0,2.7c0,2.1-0.2,2.3-2.3,2.3c-5.2,0-10.3,0-15.5,0
	c-4.9,0-4.3,0.5-4.4-4.4c0-0.2,0-0.4,0-0.6c-0.2-3.4-1.6-5.1-4.8-5.9c-1,0-2,0-3.1,0c-3.2,0.8-4.6,2.6-4.8,5.9c0,0.9,0,1.8,0,2.7
	c0,2.1-0.2,2.3-2.3,2.3c-5,0-10,0-15.1,0c-4.9,0-4.3,0.5-4.4-4.4c0-0.2,0-0.4,0-0.6c-0.2-3.4-1.6-5.1-4.8-5.9c-1,0-2,0-3.1,0
	c-3.2,0.8-4.6,2.6-4.8,5.9c0,0.9,0,1.8,0,2.7c0,2.1-0.2,2.3-2.3,2.3c-5.2,0-10.3,0-15.5,0c-4.9,0-4.3,0.5-4.4-4.4c0-0.2,0-0.4,0-0.6
	c-0.2-3.4-1.6-5.1-4.8-5.9c-1,0-2,0-3.1,0c-3.2,0.8-4.6,2.6-4.8,5.9c0,0.9,0,1.8,0,2.7c0,2.1-0.2,2.3-2.3,2.3c-5,0-10,0-15.1,0
	c-4.9,0-4.3,0.5-4.4-4.4c0-0.2,0-0.4,0-0.6c-0.2-3.4-1.6-5.1-4.8-5.9c-1,0-2,0-3.1,0c-3.4,0.9-4.7,2.7-4.8,6.5
	c-0.1,4.9,0.7,4.6-4.4,4.3c-7.3-0.3-17.1,5.7-17.7,15.3c0,51.8,0,103.6,0,155.5c0.2,7.1,7.4,14.4,14.6,14.6c55.5,0,111,0,166.6,0
	c8.9-1.5,13.5-6,14.9-14.6c0-51.7,0-103.4,0-155.1C197.4,26.9,197.5,25.3,196.9,23.8z M13.2,31.2c0-3.8,2.4-6.3,6.1-6.2
	c1.8,0,4.2-0.8,5.1,0.4c0.9,1.1,0.2,3.4,0.3,5.2c0.1,3.4,2.5,5.9,5.7,5.9s5.7-2.5,5.8-5.8c0-1.5,0.1-2.9,0-4.4
	c-0.1-1,0.3-1.3,1.3-1.3c6.8,0,13.7,0,20.5,0c1,0,1.3,0.3,1.3,1.3c-0.1,1.5,0,2.9,0,4.4c0.1,3.3,2.6,5.8,5.8,5.8
	c3.2,0,5.6-2.5,5.7-5.7c0-1.5,0.1-3.1,0-4.6c0-0.9,0.3-1.2,1.2-1.2c7,0,14,0,21.1,0c0.9,0,1.2,0.3,1.2,1.2c-0.1,1.4,0,2.8,0,4.2
	c0,3.6,2.4,6.1,5.7,6.1c3.3,0,5.8-2.5,5.8-6c0-1.5,0-2.9,0-4.4c0-0.8,0.2-1.1,1.1-1.1c7,0,13.9,0,20.9,0c0.8,0,1.1,0.2,1.1,1.1
	c-0.1,1.5,0,3.1,0,4.6c0.1,3.4,2.5,5.9,5.8,5.8c3.2,0,5.6-2.5,5.7-5.9c0-0.1,0-0.1,0-0.2c0.1-1.8-0.8-4.1,0.4-5.1
	c1-0.9,3.3-0.3,5-0.3c5.5,0,11,0,16.5,0c1.2,0,1.7,0.3,1.6,1.6c-0.1,1.5-0.1,2.9,0,4.4c0.1,3.1,2.6,5.5,5.7,5.6
	c3.2,0,5.7-2.4,5.8-5.6c0-1.6,0-3.2,0-4.8c0-0.8,0.2-1.1,1.1-1.1c1.6,0.1,3.2,0,4.8,0c3.2,0.1,5.6,2.5,5.6,5.8
	c0,5.2-0.1,10.3,0.1,15.5c0,1.5-0.5,1.7-1.8,1.7c-28.3,0-56.5,0-84.8,0c-28.1,0-56.3,0-84.4,0c-1.6,0-2.2-0.2-2.1-2
	C13.3,41.1,13.2,36.2,13.2,31.2z M186.3,161.7c0,1.6-0.4,2-2,2c-28.2-0.1-56.4,0-84.6,0s-56.4,0-84.6,0c-1.6,0-2-0.4-2-2
	c0.1-33.4,0.1-66.9,0-100.3c0-1.6,0.4-2,2-2c56.4,0,112.8,0,169.2,0c1.6,0,2,0.4,2,2C186.3,94.8,186.3,128.2,186.3,161.7z
	 M186.3,177.1c-0.2,1.3,0,2.5,0,3.8c-0.1,3.2-2.5,5.6-5.7,5.7c-0.4,0-0.9,0-1.3,0c-53,0-105.9,0-158.9,0.1c-4.4,0-7.4-2.5-7.2-7.3
	c0.2-4.3,0-4.3,4.4-4.3c27.4,0,54.9,0,82.3,0c28.1,0,56.3,0,84.4,0C185.8,175.1,186.6,175.3,186.3,177.1z"/>
<path d="M60.8,111.2c-0.6-0.6-0.9-1.5-0.9-2.1c0-0.6,0.3-1.5,0.9-2.1l4.3-4.3c1.2-1.2,3.1-1.2,4.3,0l0.3,0.3L86.6,121
	c0.6,0.6,1.5,0.6,2.1,0l41.1-42.6h0.3l0,0c1.2-1.2,3.1-1.2,4.3,0l4.3,4.3c1.2,1.2,1.2,3.1,0,4.3l0,0l-49.1,50.9
	c-0.6,0.6-1.2,0.9-2.1,0.9c-0.9,0-1.5-0.3-2.1-0.9l-23.9-25.8L60.8,111.2z"/>
</svg>
